<svg width="43" height="43" viewBox="0 0 43 43" fill="none" xmlns="http://www.w3.org/2000/svg">
<path d="M42 10.357C42 8.8794 41.398 7.46228 40.3263 6.41744C39.2547 5.37259 37.8012 4.7856 36.2857 4.7856H34.8571V3.43191C34.8571 2.68238 34.2661 2.03905 33.4973 2.00161C33.3042 1.99254 33.1111 2.0218 32.9299 2.08761C32.7487 2.15342 32.5831 2.25443 32.4431 2.3845C32.3031 2.51456 32.1916 2.67099 32.1155 2.8443C32.0393 3.01761 32 3.20419 32 3.39273V4.7856H12V3.43191C12 2.68238 11.4089 2.03905 10.6402 2.00161C10.447 1.99254 10.254 2.0218 10.0728 2.08761C9.89155 2.15342 9.72593 2.25443 9.58593 2.3845C9.44593 2.51456 9.33448 2.67099 9.25831 2.8443C9.18215 3.01761 9.14288 3.20419 9.14286 3.39273V4.7856H7.71429C6.19876 4.7856 4.74531 5.37259 3.67368 6.41744C2.60204 7.46228 2 8.8794 2 10.357V11.4017C2 11.494 2.03763 11.5826 2.1046 11.6479C2.17158 11.7132 2.26242 11.7499 2.35714 11.7499H41.6429C41.7376 11.7499 41.8284 11.7132 41.8954 11.6479C41.9624 11.5826 42 11.494 42 11.4017V10.357ZM2 35.4286C2 36.9062 2.60204 38.3233 3.67368 39.3682C4.74531 40.413 6.19876 41 7.71429 41H36.2857C37.8012 41 39.2547 40.413 40.3263 39.3682C41.398 38.3233 42 36.9062 42 35.4286V14.7968C42 14.7275 41.9718 14.6611 41.9215 14.6121C41.8713 14.5631 41.8032 14.5356 41.7321 14.5356H2.26786C2.19682 14.5356 2.12869 14.5631 2.07845 14.6121C2.02822 14.6611 2 14.7275 2 14.7968V35.4286ZM32.7143 17.3214C33.1381 17.3214 33.5524 17.4439 33.9048 17.6735C34.2572 17.903 34.5318 18.2293 34.694 18.6111C34.8562 18.9929 34.8987 19.413 34.816 19.8182C34.7333 20.2235 34.5292 20.5958 34.2295 20.888C33.9298 21.1802 33.548 21.3792 33.1323 21.4598C32.7167 21.5404 32.2858 21.499 31.8943 21.3409C31.5027 21.1828 31.168 20.915 30.9326 20.5714C30.6971 20.2278 30.5714 19.8239 30.5714 19.4106C30.5714 18.8565 30.7972 18.3251 31.1991 17.9333C31.6009 17.5415 32.146 17.3214 32.7143 17.3214ZM32.7143 24.2857C33.1381 24.2857 33.5524 24.4082 33.9048 24.6378C34.2572 24.8673 34.5318 25.1936 34.694 25.5754C34.8562 25.9572 34.8987 26.3773 34.816 26.7826C34.7333 27.1878 34.5292 27.5601 34.2295 27.8523C33.9298 28.1445 33.548 28.3435 33.1323 28.4241C32.7167 28.5047 32.2858 28.4633 31.8943 28.3052C31.5027 28.1471 31.168 27.8793 30.9326 27.5357C30.6971 27.1921 30.5714 26.7882 30.5714 26.375C30.5714 25.8208 30.7972 25.2894 31.1991 24.8976C31.6009 24.5058 32.146 24.2857 32.7143 24.2857ZM25.5714 17.3214C25.9952 17.3214 26.4095 17.4439 26.7619 17.6735C27.1143 17.903 27.389 18.2293 27.5512 18.6111C27.7134 18.9929 27.7558 19.413 27.6731 19.8182C27.5904 20.2235 27.3863 20.5958 27.0867 20.888C26.787 21.1802 26.4052 21.3792 25.9895 21.4598C25.5738 21.5404 25.143 21.499 24.7514 21.3409C24.3598 21.1828 24.0252 20.915 23.7897 20.5714C23.5542 20.2278 23.4286 19.8239 23.4286 19.4106C23.4286 18.8565 23.6543 18.3251 24.0562 17.9333C24.4581 17.5415 25.0031 17.3214 25.5714 17.3214ZM25.5714 24.2857C25.9952 24.2857 26.4095 24.4082 26.7619 24.6378C27.1143 24.8673 27.389 25.1936 27.5512 25.5754C27.7134 25.9572 27.7558 26.3773 27.6731 26.7826C27.5904 27.1878 27.3863 27.5601 27.0867 27.8523C26.787 28.1445 26.4052 28.3435 25.9895 28.4241C25.5738 28.5047 25.143 28.4633 24.7514 28.3052C24.3598 28.1471 24.0252 27.8793 23.7897 27.5357C23.5542 27.1921 23.4286 26.7882 23.4286 26.375C23.4286 25.8208 23.6543 25.2894 24.0562 24.8976C24.4581 24.5058 25.0031 24.2857 25.5714 24.2857ZM25.5714 31.25C25.9952 31.25 26.4095 31.3725 26.7619 31.6021C27.1143 31.8317 27.389 32.158 27.5512 32.5397C27.7134 32.9215 27.7558 33.3416 27.6731 33.7469C27.5904 34.1521 27.3863 34.5244 27.0867 34.8166C26.787 35.1088 26.4052 35.3078 25.9895 35.3884C25.5738 35.469 25.143 35.4276 24.7514 35.2695C24.3598 35.1114 24.0252 34.8436 23.7897 34.5C23.5542 34.1564 23.4286 33.7525 23.4286 33.3393C23.4286 32.7851 23.6543 32.2537 24.0562 31.8619C24.4581 31.4701 25.0031 31.25 25.5714 31.25ZM18.4286 24.2857C18.8524 24.2857 19.2667 24.4082 19.6191 24.6378C19.9715 24.8673 20.2461 25.1936 20.4083 25.5754C20.5705 25.9572 20.6129 26.3773 20.5303 26.7826C20.4476 27.1878 20.2435 27.5601 19.9438 27.8523C19.6441 28.1445 19.2623 28.3435 18.8466 28.4241C18.431 28.5047 18.0001 28.4633 17.6085 28.3052C17.217 28.1471 16.8823 27.8793 16.6469 27.5357C16.4114 27.1921 16.2857 26.7882 16.2857 26.375C16.2857 25.8208 16.5115 25.2894 16.9133 24.8976C17.3152 24.5058 17.8603 24.2857 18.4286 24.2857ZM18.4286 31.25C18.8524 31.25 19.2667 31.3725 19.6191 31.6021C19.9715 31.8317 20.2461 32.158 20.4083 32.5397C20.5705 32.9215 20.6129 33.3416 20.5303 33.7469C20.4476 34.1521 20.2435 34.5244 19.9438 34.8166C19.6441 35.1088 19.2623 35.3078 18.8466 35.3884C18.431 35.469 18.0001 35.4276 17.6085 35.2695C17.217 35.1114 16.8823 34.8436 16.6469 34.5C16.4114 34.1564 16.2857 33.7525 16.2857 33.3393C16.2857 32.7851 16.5115 32.2537 16.9133 31.8619C17.3152 31.4701 17.8603 31.25 18.4286 31.25ZM11.2857 24.2857C11.7095 24.2857 12.1238 24.4082 12.4762 24.6378C12.8286 24.8673 13.1033 25.1936 13.2655 25.5754C13.4276 25.9572 13.4701 26.3773 13.3874 26.7826C13.3047 27.1878 13.1006 27.5601 12.8009 27.8523C12.5013 28.1445 12.1194 28.3435 11.7038 28.4241C11.2881 28.5047 10.8572 28.4633 10.4657 28.3052C10.0741 28.1471 9.73945 27.8793 9.50399 27.5357C9.26853 27.1921 9.14286 26.7882 9.14286 26.375C9.14286 25.8208 9.36862 25.2894 9.77049 24.8976C10.1723 24.5058 10.7174 24.2857 11.2857 24.2857ZM11.2857 31.25C11.7095 31.25 12.1238 31.3725 12.4762 31.6021C12.8286 31.8317 13.1033 32.158 13.2655 32.5397C13.4276 32.9215 13.4701 33.3416 13.3874 33.7469C13.3047 34.1521 13.1006 34.5244 12.8009 34.8166C12.5013 35.1088 12.1194 35.3078 11.7038 35.3884C11.2881 35.469 10.8572 35.4276 10.4657 35.2695C10.0741 35.1114 9.73945 34.8436 9.50399 34.5C9.26853 34.1564 9.14286 33.7525 9.14286 33.3393C9.14286 32.7851 9.36862 32.2537 9.77049 31.8619C10.1723 31.4701 10.7174 31.25 11.2857 31.25Z" fill="#BB974E"/>
</svg>
