<svg width="26" height="26" viewBox="0 0 26 26" fill="none" xmlns="http://www.w3.org/2000/svg">
<path d="M25.3954 6.26257C25.3954 5.36911 25.0314 4.51225 24.3834 3.88048C23.7354 3.24871 22.8566 2.89379 21.9402 2.89379H21.0765V2.07528C21.0765 1.62207 20.7191 1.23308 20.2542 1.21045C20.1374 1.20496 20.0207 1.22265 19.9112 1.26245C19.8016 1.30224 19.7014 1.36331 19.6168 1.44196C19.5321 1.5206 19.4647 1.61519 19.4187 1.71998C19.3726 1.82477 19.3489 1.93759 19.3489 2.05159V2.89379H7.25586V2.07528C7.25586 1.62207 6.89847 1.23308 6.43364 1.21045C6.31685 1.20496 6.20013 1.22265 6.09056 1.26245C5.98099 1.30224 5.88084 1.36331 5.79619 1.44196C5.71154 1.5206 5.64415 1.61519 5.5981 1.71998C5.55205 1.82477 5.5283 1.93759 5.52829 2.05159V2.89379H4.6645C3.74814 2.89379 2.86931 3.24871 2.22134 3.88048C1.57337 4.51225 1.20935 5.36911 1.20935 6.26257V6.89422C1.20935 6.95006 1.2321 7.00361 1.2726 7.0431C1.3131 7.08258 1.36802 7.10476 1.4253 7.10476H25.1794C25.2367 7.10476 25.2916 7.08258 25.3321 7.0431C25.3726 7.00361 25.3954 6.95006 25.3954 6.89422V6.26257ZM1.20935 21.4221C1.20935 22.3155 1.57337 23.1724 2.22134 23.8042C2.86931 24.4359 3.74814 24.7909 4.6645 24.7909H21.9402C22.8566 24.7909 23.7354 24.4359 24.3834 23.8042C25.0314 23.1724 25.3954 22.3155 25.3954 21.4221V8.94707C25.3954 8.90519 25.3783 8.86502 25.348 8.83541C25.3176 8.80579 25.2764 8.78915 25.2334 8.78915H1.37131C1.32836 8.78915 1.28716 8.80579 1.25679 8.83541C1.22641 8.86502 1.20935 8.90519 1.20935 8.94707V21.4221ZM19.7808 10.4735C20.037 10.4735 20.2875 10.5476 20.5006 10.6864C20.7137 10.8253 20.8798 11.0226 20.9778 11.2534C21.0759 11.4842 21.1016 11.7382 21.0516 11.9833C21.0016 12.2284 20.8782 12.4534 20.697 12.6301C20.5158 12.8068 20.2849 12.9271 20.0336 12.9759C19.7822 13.0246 19.5217 12.9996 19.2849 12.904C19.0482 12.8084 18.8458 12.6464 18.7035 12.4387C18.5611 12.2309 18.4851 11.9867 18.4851 11.7368C18.4851 11.4018 18.6216 11.0805 18.8646 10.8436C19.1076 10.6066 19.4371 10.4735 19.7808 10.4735ZM19.7808 14.6845C20.037 14.6845 20.2875 14.7586 20.5006 14.8974C20.7137 15.0362 20.8798 15.2335 20.9778 15.4644C21.0759 15.6952 21.1016 15.9492 21.0516 16.1943C21.0016 16.4393 20.8782 16.6644 20.697 16.8411C20.5158 17.0178 20.2849 17.1381 20.0336 17.1868C19.7822 17.2356 19.5217 17.2106 19.2849 17.1149C19.0482 17.0193 18.8458 16.8574 18.7035 16.6497C18.5611 16.4419 18.4851 16.1977 18.4851 15.9478C18.4851 15.6128 18.6216 15.2914 18.8646 15.0545C19.1076 14.8176 19.4371 14.6845 19.7808 14.6845ZM15.4618 10.4735C15.7181 10.4735 15.9686 10.5476 16.1817 10.6864C16.3948 10.8253 16.5608 11.0226 16.6589 11.2534C16.757 11.4842 16.7826 11.7382 16.7326 11.9833C16.6826 12.2284 16.5592 12.4534 16.378 12.6301C16.1968 12.8068 15.966 12.9271 15.7146 12.9759C15.4633 13.0246 15.2028 12.9996 14.966 12.904C14.7293 12.8084 14.5269 12.6464 14.3845 12.4387C14.2422 12.2309 14.1662 11.9867 14.1662 11.7368C14.1662 11.4018 14.3027 11.0805 14.5457 10.8436C14.7886 10.6066 15.1182 10.4735 15.4618 10.4735ZM15.4618 14.6845C15.7181 14.6845 15.9686 14.7586 16.1817 14.8974C16.3948 15.0362 16.5608 15.2335 16.6589 15.4644C16.757 15.6952 16.7826 15.9492 16.7326 16.1943C16.6826 16.4393 16.5592 16.6644 16.378 16.8411C16.1968 17.0178 15.966 17.1381 15.7146 17.1868C15.4633 17.2356 15.2028 17.2106 14.966 17.1149C14.7293 17.0193 14.5269 16.8574 14.3845 16.6497C14.2422 16.4419 14.1662 16.1977 14.1662 15.9478C14.1662 15.6128 14.3027 15.2914 14.5457 15.0545C14.7886 14.8176 15.1182 14.6845 15.4618 14.6845ZM15.4618 18.8955C15.7181 18.8955 15.9686 18.9696 16.1817 19.1084C16.3948 19.2472 16.5608 19.4445 16.6589 19.6754C16.757 19.9062 16.7826 20.1602 16.7326 20.4052C16.6826 20.6503 16.5592 20.8754 16.378 21.0521C16.1968 21.2288 15.966 21.3491 15.7146 21.3978C15.4633 21.4466 15.2028 21.4215 14.966 21.3259C14.7293 21.2303 14.5269 21.0684 14.3845 20.8606C14.2422 20.6529 14.1662 20.4086 14.1662 20.1588C14.1662 19.8237 14.3027 19.5024 14.5457 19.2655C14.7886 19.0286 15.1182 18.8955 15.4618 18.8955ZM11.1429 14.6845C11.3992 14.6845 11.6497 14.7586 11.8627 14.8974C12.0758 15.0362 12.2419 15.2335 12.34 15.4644C12.438 15.6952 12.4637 15.9492 12.4137 16.1943C12.3637 16.4393 12.2403 16.6644 12.0591 16.8411C11.8779 17.0178 11.647 17.1381 11.3957 17.1868C11.1443 17.2356 10.8838 17.2106 10.6471 17.1149C10.4103 17.0193 10.208 16.8574 10.0656 16.6497C9.92321 16.4419 9.84722 16.1977 9.84722 15.9478C9.84722 15.6128 9.98373 15.2914 10.2267 15.0545C10.4697 14.8176 10.7993 14.6845 11.1429 14.6845ZM11.1429 18.8955C11.3992 18.8955 11.6497 18.9696 11.8627 19.1084C12.0758 19.2472 12.2419 19.4445 12.34 19.6754C12.438 19.9062 12.4637 20.1602 12.4137 20.4052C12.3637 20.6503 12.2403 20.8754 12.0591 21.0521C11.8779 21.2288 11.647 21.3491 11.3957 21.3978C11.1443 21.4466 10.8838 21.4215 10.6471 21.3259C10.4103 21.2303 10.208 21.0684 10.0656 20.8606C9.92321 20.6529 9.84722 20.4086 9.84722 20.1588C9.84722 19.8237 9.98373 19.5024 10.2267 19.2655C10.4697 19.0286 10.7993 18.8955 11.1429 18.8955ZM6.82397 14.6845C7.08023 14.6845 7.33074 14.7586 7.54381 14.8974C7.75688 15.0362 7.92295 15.2335 8.02102 15.4644C8.11909 15.6952 8.14475 15.9492 8.09475 16.1943C8.04476 16.4393 7.92136 16.6644 7.74015 16.8411C7.55895 17.0178 7.32808 17.1381 7.07674 17.1868C6.82541 17.2356 6.56489 17.2106 6.32813 17.1149C6.09138 17.0193 5.88902 16.8574 5.74665 16.6497C5.60428 16.4419 5.52829 16.1977 5.52829 15.9478C5.52829 15.6128 5.6648 15.2914 5.90778 15.0545C6.15077 14.8176 6.48033 14.6845 6.82397 14.6845ZM6.82397 18.8955C7.08023 18.8955 7.33074 18.9696 7.54381 19.1084C7.75688 19.2472 7.92295 19.4445 8.02102 19.6754C8.11909 19.9062 8.14475 20.1602 8.09475 20.4052C8.04476 20.6503 7.92136 20.8754 7.74015 21.0521C7.55895 21.2288 7.32808 21.3491 7.07674 21.3978C6.82541 21.4466 6.56489 21.4215 6.32813 21.3259C6.09138 21.2303 5.88902 21.0684 5.74665 20.8606C5.60428 20.6529 5.52829 20.4086 5.52829 20.1588C5.52829 19.8237 5.6648 19.5024 5.90778 19.2655C6.15077 19.0286 6.48033 18.8955 6.82397 18.8955Z" fill="#4EA0BB"/>
</svg>
