<svg width="43" height="43" viewBox="0 0 43 43" fill="none" xmlns="http://www.w3.org/2000/svg">
<path fill-rule="evenodd" clip-rule="evenodd" d="M2 21.5C2 10.7302 10.7302 2 21.5 2C32.2698 2 41 10.7302 41 21.5C41 32.2698 32.2698 41 21.5 41C10.7302 41 2 32.2698 2 21.5ZM23.45 11.75C23.45 11.2328 23.2446 10.7368 22.8789 10.3711C22.5132 10.0054 22.0172 9.8 21.5 9.8C20.9828 9.8 20.4868 10.0054 20.1211 10.3711C19.7554 10.7368 19.55 11.2328 19.55 11.75V19.0898C19.55 20.176 19.8525 21.2408 20.4235 22.1649C20.9946 23.0889 21.8116 23.8357 22.7831 24.3216L28.4284 27.1433C28.6582 27.2673 28.9106 27.3438 29.1706 27.3683C29.4306 27.3929 29.6929 27.3649 29.9419 27.2862C30.1909 27.2074 30.4215 27.0795 30.6201 26.9099C30.8187 26.7403 30.9812 26.5326 31.098 26.299C31.2148 26.0654 31.2835 25.8108 31.3 25.5501C31.3165 25.2895 31.2805 25.0282 31.1941 24.7818C31.1077 24.5353 30.9727 24.3088 30.797 24.1155C30.6214 23.9222 30.4087 23.7662 30.1717 23.6567L24.5284 20.8331C24.2045 20.6713 23.9321 20.4225 23.7416 20.1146C23.5512 19.8067 23.4502 19.4518 23.45 19.0898V11.75Z" fill="#BB974E"/>
</svg>
