<svg width="43" height="43" viewBox="0 0 43 43" fill="none" xmlns="http://www.w3.org/2000/svg">
<path d="M11.3441 1.82926C6.74699 1.8479 1.76655 5.42345 2.15489 14.4331C2.17085 14.8013 2.28221 15.5807 2.45808 16.631C3.36007 14.6809 4.63991 12.7018 5.91899 10.9587C7.02834 9.44664 8.14231 8.13288 9.04984 7.21745C9.50361 6.75973 9.89918 6.40338 10.2585 6.15269C10.3949 6.05762 10.5224 5.97548 10.6729 5.90964L10.7948 5.52163L14.4273 5.70589L14.5649 6.24575C14.5799 6.30454 14.5939 6.36475 14.6087 6.42379C16.7525 7.74016 18.342 9.83272 19.4529 12.219C19.3074 9.33032 18.8881 6.83154 17.9629 5.23147C16.7228 3.08726 14.1024 1.81792 11.3441 1.82918V1.82926ZM31.6559 1.82926C28.8976 1.81801 26.2772 3.08735 25.0372 5.23163C24.1119 6.83162 23.6926 9.33041 23.5471 12.2191C24.6581 9.8328 26.2476 7.74025 28.3914 6.42396C28.4061 6.36484 28.4202 6.30462 28.4351 6.24583L28.5728 5.70598L32.2053 5.5218L32.3271 5.90972C32.4776 5.97557 32.6051 6.0577 32.7415 6.15278C33.1009 6.40347 33.4965 6.75981 33.9502 7.21753C34.8577 8.13296 35.9717 9.44673 37.0811 10.9586C38.3602 12.7018 39.64 14.681 40.542 16.631C40.7178 15.5807 40.8292 14.8013 40.8451 14.4331C41.2334 5.42354 36.253 1.8479 31.6559 1.82926ZM11.9045 7.09172C11.6032 8.15933 11.4195 9.20384 11.4165 10.2265L13.5213 10.1714C13.6236 9.18302 13.4669 8.19074 13.2256 7.15866L11.9045 7.09172ZM31.0956 7.09172L29.7745 7.15866C29.5331 8.19074 29.3764 9.18302 29.4787 10.1714L31.5835 10.2265C31.5805 9.20384 31.3968 8.15933 31.0956 7.09172ZM10.0575 8.35006C9.23377 9.1899 8.18077 10.4314 7.13769 11.853C4.99701 14.7703 2.92956 18.5144 2.73984 20.8965C2.65048 22.0183 3.2608 23.7709 4.01733 25.2785C4.77386 26.786 5.62395 28.0549 5.90832 28.4917C5.97282 28.5908 6.01717 28.6083 6.12626 28.6153C6.23536 28.6224 6.3998 28.5788 6.53493 28.4731C6.80511 28.2618 7.06025 27.8984 6.59817 27.017C6.42877 26.6938 5.74842 25.6832 5.15423 24.5406C4.56004 23.3981 3.9913 22.0761 4.07326 20.7479C4.22276 18.3266 5.85793 15.5888 7.40686 13.3399C8.43079 11.8534 9.36352 10.6936 9.89111 10.062C9.90178 9.48637 9.96141 8.91561 10.0575 8.35006ZM32.9426 8.35006C33.0387 8.91561 33.0983 9.48637 33.1088 10.062C33.6365 10.6936 34.5692 11.8534 35.5931 13.3399C37.1422 15.5887 38.7773 18.3266 38.9268 20.7479C39.0087 22.0761 38.44 23.398 37.8458 24.5406C37.2516 25.6833 36.5713 26.6938 36.4019 27.017C35.9398 27.8984 36.1949 28.2618 36.4651 28.4731C36.6003 28.5788 36.7646 28.6225 36.8738 28.6153C36.983 28.6082 37.0272 28.5908 37.0917 28.4917C37.3762 28.0549 38.2262 26.786 38.9827 25.2785C39.7392 23.7709 40.3496 22.0183 40.2602 20.8965C40.0705 18.5144 38.003 14.7703 35.8624 11.853C34.8193 10.4314 33.7663 9.1899 32.9426 8.35006ZM15.0231 8.62956C15.0735 9.13724 15.0855 9.65669 15.0401 10.188C17.7373 13.2954 18.6501 16.7942 18.7189 20.3544C18.7444 21.6776 18.2662 23.1048 17.7529 24.3492C17.2396 25.5936 16.667 26.6481 16.4521 27.0499C16.2187 27.4866 16.2344 27.7137 16.2605 27.8034C16.2867 27.8932 16.3294 27.9429 16.4766 28.0038C16.7708 28.1256 17.3529 27.9716 17.4373 27.8611C17.5839 27.6693 18.3534 26.3468 18.954 24.8777C19.5544 23.4085 20.036 21.6849 19.9649 20.542C19.7005 16.2941 18.0343 11.3213 15.0231 8.62956ZM27.977 8.62956C24.9657 11.3214 23.2996 16.2941 23.0352 20.542C22.964 21.685 23.4456 23.4085 24.0461 24.8777C24.6466 26.3468 25.4161 27.6693 25.5628 27.8611C25.6472 27.9716 26.2293 28.1256 26.5235 28.0039C26.6706 27.9429 26.7133 27.8931 26.7396 27.8034C26.7657 27.7137 26.7814 27.4865 26.5479 27.0499C26.3332 26.6481 25.7605 25.5936 25.2472 24.3492C24.7338 23.1048 24.2556 21.6776 24.2812 20.3544C24.35 16.7942 25.2628 13.2955 27.9599 10.1881C27.9146 9.65669 27.9265 9.13724 27.977 8.62956ZM14.3082 11.6631L10.4582 11.7637C9.93823 12.4188 9.30171 13.2537 8.65167 14.1975C7.16028 16.3627 5.69055 19.0836 5.58204 20.8411C5.53342 21.6283 5.95283 22.8 6.49537 23.8432C7.03791 24.8863 7.64294 25.7538 7.93722 26.3153C8.64672 27.669 8.29188 29.0184 7.46606 29.664C7.0532 29.9869 6.54812 30.1576 6.028 30.1238C5.65964 30.0998 5.27928 29.9524 4.97416 29.6929C5.65939 33.068 6.27172 36.0154 6.51981 37.2013C7.45876 41.6911 21.0111 44.4848 19.0837 33.6032C18.8639 32.3626 18.8578 30.5124 18.9395 28.3322C18.8302 28.5083 18.7279 28.6621 18.6383 28.7793C17.9686 29.6554 16.836 29.7887 15.8985 29.4007C15.4297 29.2067 14.9772 28.8025 14.8093 28.2267C14.6414 27.651 14.7639 27.0011 15.1189 26.3371C15.3407 25.9222 15.8784 24.929 16.3555 23.7726C16.8325 22.6163 17.2248 21.2895 17.2073 20.3836C17.1466 17.2427 16.4424 14.3433 14.3082 11.6632V11.6631ZM28.6919 11.6631C26.5576 14.3433 25.8534 17.2427 25.7927 20.3836C25.7752 21.2895 26.1675 22.6163 26.6446 23.7726C27.1216 24.9289 27.6594 25.9222 27.8812 26.3371C28.2362 27.0011 28.3587 27.651 28.1907 28.2267C28.0227 28.8024 27.5703 29.2068 27.1015 29.4007C26.1639 29.7887 25.0315 29.6554 24.3617 28.7793C24.2723 28.6621 24.1699 28.5083 24.0605 28.3322C24.1422 30.5124 24.1361 32.3626 23.9163 33.6032C21.989 44.4848 35.5412 41.6911 36.4802 37.2013C36.7282 36.0154 37.3406 33.068 38.0259 29.6928C37.7208 29.9523 37.3404 30.0998 36.972 30.1238C36.452 30.1576 35.9468 29.9869 35.534 29.664C34.7082 29.0184 34.3533 27.669 35.0628 26.3153C35.3571 25.7539 35.9621 24.8864 36.5047 23.8432C37.0472 22.8 37.4666 21.6283 37.418 20.8411C37.3095 19.0836 35.8398 16.3627 34.3484 14.1975C33.6983 13.2537 33.0618 12.4187 32.5419 11.7637L28.6919 11.6631Z" fill="#BB974E"/>
</svg>
