<svg width="22" height="21" viewBox="0 0 22 21" fill="none" xmlns="http://www.w3.org/2000/svg">
<path d="M11 10.5C9.4875 10.5 8.19271 9.98594 7.11562 8.95781C6.03854 7.92969 5.5 6.69375 5.5 5.25C5.5 3.80625 6.03854 2.57031 7.11562 1.54219C8.19271 0.514063 9.4875 0 11 0C12.5125 0 13.8073 0.514063 14.8844 1.54219C15.9615 2.57031 16.5 3.80625 16.5 5.25C16.5 6.69375 15.9615 7.92969 14.8844 8.95781C13.8073 9.98594 12.5125 10.5 11 10.5ZM0 18.375V17.325C0 16.5812 0.20075 15.8979 0.60225 15.2749C1.00375 14.6519 1.53633 14.1759 2.2 13.8469C3.62083 13.1687 5.06458 12.6604 6.53125 12.3217C7.99792 11.9831 9.4875 11.8134 11 11.8125C12.5125 11.8116 14.0021 11.9814 15.4687 12.3217C16.9354 12.6621 18.3792 13.1705 19.8 13.8469C20.4646 14.175 20.9976 14.651 21.3991 15.2749C21.8006 15.8987 22.0009 16.5821 22 17.325V18.375C22 19.0969 21.731 19.7151 21.1929 20.2296C20.6548 20.7441 20.0072 21.0009 19.25 21H2.75C1.99375 21 1.34658 20.7432 0.8085 20.2296C0.270416 19.7159 0.000916667 19.0977 0 18.375Z" fill="#4EA0BB"/>
</svg>
